# xmcd CD database file
#
# Track frame offsets:
#	150
#	16803
#	33584
#	51898
#	66160
#	85139
#	102011
#	121304
#	132918
#	151129
#	169842
#	184895
#	201034
#	218439
#	233804
#	258360
#	272930
#
# Disc length: 3792 seconds
#
# Revision: 0
# Processed by: cddbd v1.5.2PL0 Copyright (c) Steve Scherf et al.
# Submitted via: CDex 1.79
#
DISCID=e40ece11
DTITLE=Spencer and Rains - The Skeleton Keys
DYEAR=2017
DGENRE=Country
TTITLE0=Get Up in the Cool
TTITLE1=Walk Around My Bedside
TTITLE2=Cumberland Gap
TTITLE3=Gone Indian
TTITLE4=Tom Sherman's Barroom
TTITLE5=Miller Boy
TTITLE6=I Truly Understand
TTITLE7=Stony Point
TTITLE8=Where Did you Sleep Last Night
TTITLE9=Sugarbabe
TTITLE10=Billy in the Lowground
TTITLE11=When First Unto This Country
TTITLE12=Good Ol' Cider
TTITLE13=Creek's All Muddy
TTITLE14=Walk Around My Bedside (Waltz)
TTITLE15=Big Powwow
TTITLE16=Oberek
EXTD=YEAR: 2017
EXTT0=
EXTT1=
EXTT2=
EXTT3=
EXTT4=
EXTT5=
EXTT6=
EXTT7=
EXTT8=
EXTT9=
EXTT10=
EXTT11=
EXTT12=
EXTT13=
EXTT14=
EXTT15=
EXTT16=
PLAYORDER=
